<?xml version="1.0" standalone="no"?>
<!DOCTYPE svg PUBLIC "-//W3C//DTD SVG 20010904//EN"
 "http://www.w3.org/TR/2001/REC-SVG-20010904/DTD/svg10.dtd">
<svg version="1.0" xmlns="http://www.w3.org/2000/svg"
 width="512.000000pt" height="512.000000pt" viewBox="0 0 512.000000 512.000000"
 preserveAspectRatio="xMidYMid meet">

<g transform="translate(0.000000,512.000000) scale(0.100000,-0.100000)"
fill="#000000" stroke="none">
<path d="M2660 4840 c-111 -22 -177 -41 -253 -74 -248 -110 -410 -338 -447
-627 -5 -46 -10 -244 -10 -441 l0 -358 -232 -2 -233 -3 0 -385 0 -385 233 -3
232 -2 0 -1150 0 -1150 475 0 475 0 0 1150 0 1150 323 2 322 3 16 110 c20 130
56 453 65 578 l7 87 -362 0 -361 0 0 280 c0 227 3 286 15 309 23 46 101 107
150 120 27 7 146 11 304 11 l261 0 0 400 0 400 -442 -1 c-385 -1 -455 -3 -538
-19z"/>
</g>
</svg>
